<svg width="16" height="16" viewBox="0 0 16 16" fill="none" xmlns="http://www.w3.org/2000/svg">
<path d="M0.981653 16C0.730539 16 0.479425 15.9041 0.287537 15.7126C-0.0958456 15.3296 -0.0958456 14.7077 0.287537 14.3243L14.3242 0.287539C14.7076 -0.0958462 15.3287 -0.0958462 15.7125 0.287539C16.0958 0.670529 16.0958 1.29239 15.7125 1.67578L1.67577 15.7126C1.48388 15.9044 1.23277 16 0.981653 16Z" fill="#9747ff"/>
<path d="M15.0183 16C14.7672 16 14.5161 15.9041 14.3242 15.7126L0.287537 1.67578C-0.0958456 1.29279 -0.0958456 0.670923 0.287537 0.287539C0.670919 -0.0958462 1.29199 -0.0958462 1.67577 0.287539L15.7125 14.3243C16.0958 14.7073 16.0958 15.3292 15.7125 15.7126C15.5206 15.9044 15.2695 16 15.0183 16Z" fill="#9747ff"/>
</svg>