<?xml version="1.0" encoding="utf-8"?>
<!-- Generator: Adobe Illustrator 20.1.0, SVG Export Plug-In . SVG Version: 6.00 Build 0)  -->
<svg version="1.1" id="Zoa_x5F_Logo_x5F_Symbol" xmlns="http://www.w3.org/2000/svg" xmlns:xlink="http://www.w3.org/1999/xlink"
	 x="0px" y="0px" viewBox="0 0 1600 1600" style="enable-background:new 0 0 1600 1600;" xml:space="preserve">
<style type="text/css">
	.st0{fill:#29ABE2;}
	.st1{fill:#FFBE3F;}
	.st2{fill:#AC4B89;}
	.st3{fill:#252E2E;}
</style>
<g>
	<path class="st0" d="M722.4,198.8L251,471l549,317l549-317L877.6,198.8C829.6,171.2,770.4,171.2,722.4,198.8z M800,655.8L480,471
		l287.8-166.2c19.8-11.4,44.4-11.4,64.2,0l288,166.4L800,655.8z"/>
	<path class="st1" d="M800,788L251,471v544.4c0,55.4,29.6,106.6,77.6,134.4L800,1422V788z M365.6,1001.8V669.4l320,184.8v369.2
		l-287.8-166C377.8,1046,365.6,1024.8,365.6,1001.8z"/>
	<path class="st2" d="M1349,471.2L800,788v633.8l471.4-272.2c48-27.8,77.6-79,77.6-134.4V471.2z M914.6,1223.6V854.4l319.8-184.6
		V1002c0,23-12.2,44-32,55.6L914.6,1223.6z"/>
	<path class="st3" d="M508.4,752c-7.6,61.2,4,125.4,37.2,183s83,99.6,140,123.6V854.2L508.4,752z"/>
	<path class="st3" d="M914.6,1058.6c11-4.6,21.8-10,32.4-16.2c105.2-60.8,158.8-177,144.8-290.4l-177,102.2L914.6,1058.6z"/>
	<path class="st3" d="M653,533.6c-10.6,6.2-20.6,12.8-30.2,20L800,656l177.2-102.2C885.8,484.6,758.4,472.6,653,533.6z"/>
</g>
</svg>
